<?xml version="1.0" encoding="utf-8"?>
<!-- Generator: Adobe Illustrator 29.3.1, SVG Export Plug-In . SVG Version: 9.03 Build 55982)  -->
<svg version="1.1" id="Layer_1" xmlns="http://www.w3.org/2000/svg" xmlns:xlink="http://www.w3.org/1999/xlink" x="0px" y="0px"
	 viewBox="0 0 1080 1080" enable-background="new 0 0 1080 1080" xml:space="preserve">
<g>
	<rect y="0" fill="none" width="1080" height="1080"/>
	<ellipse fill="#FEFCFF" cx="540" cy="912.8" rx="267.8" ry="49.2"/>
	<g>
		<path fill="#FF9237" d="M470,892.5c-10,0-32.1,8.2-39.2,1.4c-10.4-9.9,0-57.4,0-57.4h-28.6c0,0,10.5,47.5,0,57.4
			c-7.1,6.7-29.2-1.4-39.2-1.4c-25,0-45.3,18.2-45.3,18.2h197.7C515.3,910.7,495,892.5,470,892.5z"/>
		<path fill="#FF9237" d="M717.1,892.5c-10.1,0-32.1,8.2-39.2,1.4c-10.4-9.9,0-57.4,0-57.4h-28.6c0,0,10.4,47.5,0,57.4
			c-7.1,6.7-29.2-1.4-39.2-1.4c-25,0-45.3,18.2-45.3,18.2h197.7C762.4,910.7,742.1,892.5,717.1,892.5z"/>
		<path fill="#7CA7F6" stroke="#000000" stroke-width="6" stroke-miterlimit="10" d="M272.9,478.5c-133,82.5-106.9,198-88.1,184.3
			C392.1,511.9,443.1,372.9,272.9,478.5z"/>
		<path fill="#7CA7F6" stroke="#000000" stroke-width="6" stroke-miterlimit="10" d="M807.1,478.5
			c-170.1-105.6-119.2,33.4,88.2,184.3C914,676.5,940.1,561.1,807.1,478.5z"/>
		<path fill="#7CA7F6" stroke="#000000" stroke-width="6" stroke-miterlimit="10" d="M737.7,360.4c0-105.5-88.5-191.1-197.7-191.1
			c-109.2,0-197.7,85.6-197.7,191.1c0,143.3-49.4,191.4-49.4,286.6C292.9,779,403.5,886,540,886S787.1,779,787.1,647.1
			C787.1,551.8,737.7,503.8,737.7,360.4z"/>
		<path fill="#FFFFFF" d="M688.3,376.8c0-153.3-125.1-123.4-125.1-8.7h-46.3c0-114.7-125.1-144.6-125.1,8.7
			c0,119.5-49.4,194.1-49.4,273.5c0,142.9,95.3,211.8,197.7,211.8c102.4,0,197.7-68.9,197.7-211.8
			C737.7,570.9,688.3,496.2,688.3,376.8z"/>
		<path d="M651.2,354.2c0,20.5-11.1,37.1-24.7,37.1c-13.6,0-24.7-16.6-24.7-37.1c0-20.4,11.1-37,24.7-37
			C640.1,317.2,651.2,333.8,651.2,354.2z"/>
		<path d="M478.2,354.2c0,20.5-11.1,37.1-24.7,37.1c-13.6,0-24.7-16.6-24.7-37.1c0-20.4,11.1-37,24.7-37
			C467.2,317.2,478.2,333.8,478.2,354.2z"/>
		<path fill="#F48531" d="M490.3,416.6h99.3c0,31.4-22.2,56.8-49.6,56.8C512.6,473.4,490.3,448,490.3,416.6z"/>
		<path fill="#FF9237" d="M601.8,420.5L540,435.6l-61.8-15.1c0-39,27.6-70.7,61.8-70.7C574.1,349.8,601.8,381.5,601.8,420.5z"/>
		<path d="M561.6,365c3.5,4,4.9,8.9,3.1,11c-1.8,2.1-6.1,0.4-9.6-3.6c-3.5-4-4.9-8.9-3.1-11C553.8,359.3,558.1,360.9,561.6,365z"/>
		<path d="M518.4,365c-3.5,4-4.9,8.9-3.1,11c1.8,2.1,6.1,0.4,9.6-3.6c3.5-4,4.9-8.9,3.1-11C526.2,359.3,521.9,360.9,518.4,365z"/>
	</g>
	<circle fill="#FFFFFF" cx="457.1" cy="361.1" r="14.8"/>
	<circle fill="#FFFFFF" cx="629.9" cy="361.1" r="14.8"/>
</g>
</svg>
